<svg version="1.1" xmlns="http://www.w3.org/2000/svg" style="display: block;" viewBox="0 0 2048 2048" width="1024" height="1024" preserveAspectRatio="none">
<path transform="translate(0,0)" fill="rgb(0,0,0)" d="M 777.585 834.961 C 807.116 834.849 873.389 832.292 899.232 841.759 C 917.751 848.452 932.732 862.42 940.704 880.426 C 951.604 904.632 949.245 935.499 932.253 956.294 C 921.677 969.235 908.99 974.686 894.195 981.338 C 919.088 1019.38 955.196 1058.96 981.116 1097.09 L 924.969 1097.36 C 919.961 1094.16 854.06 1003.31 845.029 991.077 L 824 990.734 L 824.026 1096.66 C 808.511 1096.92 792.994 1097 777.477 1096.91 C 778.736 1062.55 777.941 1024.32 777.979 989.754 C 778.037 938.385 778.263 886.3 777.585 834.961 z M 824.07 955.922 C 846.52 955.825 869.1 957.858 887.419 942.987 C 901.976 928.047 903.944 898.743 888.224 884.037 C 873.268 870.046 843.203 871.603 823.99 871.594 L 824.07 955.922 z"/>
<path transform="translate(0,0)" fill="rgb(0,0,0)" d="M 1178.97 835.293 C 1226.75 830.039 1258.34 846.891 1269.9 894.384 C 1255.73 897.242 1241.61 900.338 1227.54 903.672 C 1225.04 896.448 1222.84 890.44 1218.14 884.193 C 1206.84 869.185 1180.83 866.205 1166.55 878.742 C 1160.68 883.938 1157.14 891.276 1156.73 899.108 C 1155.37 923.172 1177.67 931.521 1196.2 938.693 C 1217.64 946.994 1241.43 954.313 1257.54 971.683 C 1284.23 1000.47 1278.24 1050.9 1249.23 1076 C 1226.16 1095.95 1200.39 1097.98 1171.26 1096.34 C 1121.03 1089.08 1100.65 1070.48 1090.22 1020.84 L 1134.46 1012.4 C 1137.43 1026.25 1140.35 1037.58 1151.55 1047.19 C 1171.09 1063.96 1206.27 1061.78 1221.78 1040.49 C 1226 1034.69 1228.3 1022.04 1226.62 1015.17 C 1220.82 991.38 1188.62 983.749 1168.52 975.784 C 1143.43 966.29 1116.27 951.081 1111.78 921.541 C 1104.16 871.398 1132.94 843.69 1178.97 835.293 z"/>
<path transform="translate(0,0)" fill="rgb(230,29,28)" d="M 702.973 1152.09 C 738.655 1151.43 776.073 1152.02 811.929 1152 L 1024.05 1151.97 C 1023.77 1159.06 1023.72 1166.16 1023.89 1173.26 C 931.266 1174.77 837.953 1172.22 745.269 1173.28 C 731.424 1173.44 716.794 1172.73 703.077 1173.71 L 702.973 1152.09 z"/>
<path transform="translate(0,0)" fill="rgb(0,0,0)" d="M 1024.05 1151.97 L 1345.32 1151.92 C 1345.29 1159.01 1345.33 1166.1 1345.43 1173.18 C 1238.83 1173.22 1130.37 1172.17 1023.89 1173.26 C 1023.72 1166.16 1023.77 1159.06 1024.05 1151.97 z"/>
<path transform="translate(0,0)" fill="rgb(0,0,0)" d="M 985.261 962.372 C 1012.07 963.054 1041.83 962.351 1068.87 962.292 C 1068.51 972.772 1068.41 983.259 1068.58 993.744 C 1065.43 995.045 994.986 994.116 985.303 994.987 C 986.231 985.929 985.732 971.408 985.261 962.372 z"/>
</svg>